<?xml version="1.0" standalone="no"?>
<!DOCTYPE svg PUBLIC "-//W3C//DTD SVG 20010904//EN"
 "http://www.w3.org/TR/2001/REC-SVG-20010904/DTD/svg10.dtd">
<svg version="1.0" xmlns="http://www.w3.org/2000/svg"
 width="1200.000000pt" height="1200.000000pt" viewBox="0 0 1200.000000 1200.000000"
 preserveAspectRatio="xMidYMid meet">
<metadata>
Created by potrace 1.14, written by Peter Selinger 2001-2017
</metadata>
<g transform="translate(0.000000,1200.000000) scale(0.100000,-0.100000)"
fill="#000000" stroke="none">
<path d="M4120 10136 c-105 -28 -132 -51 -665 -575 -313 -308 -655 -642 -1085
-1061 -212 -206 -493 -481 -625 -610 -132 -129 -343 -336 -470 -460 -126 -124
-338 -331 -469 -460 -132 -129 -245 -239 -252 -245 -6 -5 -117 -114 -247 -242
-205 -202 -239 -240 -269 -300 -31 -64 -33 -73 -33 -178 0 -103 2 -114 32
-175 36 -74 11 -48 1168 -1180 133 -129 335 -327 450 -440 116 -113 395 -385
620 -605 728 -710 816 -796 1065 -1040 692 -679 670 -660 786 -690 111 -29
238 -13 332 42 26 15 144 122 262 238 118 115 305 298 415 405 110 107 295
287 410 400 116 113 296 289 400 391 105 102 298 291 430 420 132 128 338 331
459 449 121 118 329 321 461 450 132 129 341 334 465 455 618 604 649 637 683
705 30 61 32 71 32 175 0 105 -2 114 -34 180 -25 49 -56 90 -110 143 -42 41
-155 151 -251 246 -637 625 -961 939 -995 967 -74 59 -139 82 -248 87 -84 4
-107 1 -160 -18 -84 -31 -124 -57 -182 -122 -63 -69 -91 -126 -107 -215 -14
-87 -2 -169 38 -252 30 -61 55 -86 485 -507 303 -296 318 -316 341 -451 10
-63 10 -82 -5 -143 -30 -125 -19 -113 -706 -785 -106 -105 -205 -201 -220
-215 -34 -33 -833 -814 -1356 -1326 -460 -450 -478 -467 -555 -502 -67 -31
-203 -42 -278 -22 -106 29 -136 52 -382 293 -96 95 -281 276 -410 402 -129
126 -336 329 -460 450 -381 373 -707 691 -920 899 -635 619 -687 674 -718 764
-22 65 -25 154 -8 222 23 90 57 142 150 235 123 122 885 867 915 894 24 22
577 563 1136 1111 560 549 547 537 616 570 130 60 247 61 375 1 54 -25 98 -63
274 -235 116 -113 229 -218 251 -232 132 -83 309 -86 457 -10 57 29 142 125
175 194 57 122 47 281 -23 392 -16 25 -98 113 -182 195 -573 563 -873 851
-906 872 -92 57 -244 79 -352 49z"/>
<path d="M7620 10128 c-36 -13 -82 -35 -102 -49 -20 -14 -221 -205 -445 -426
-224 -220 -424 -415 -443 -433 -19 -18 -138 -134 -265 -258 -126 -124 -329
-322 -450 -440 -121 -119 -314 -308 -430 -421 -115 -114 -401 -393 -635 -621
-1165 -1136 -1261 -1233 -1289 -1293 -53 -111 -51 -258 5 -370 30 -59 37 -66
824 -836 500 -488 540 -525 610 -559 73 -36 78 -37 186 -37 107 0 112 1 186
37 95 48 185 139 219 225 34 82 33 231 0 318 -21 56 -46 83 -401 435 -336 332
-382 382 -405 433 -51 117 -49 241 5 353 32 65 -22 10 1120 1129 334 328 629
615 875 855 121 118 319 312 440 431 285 281 309 300 406 334 58 21 190 21
259 1 103 -30 71 -1 774 -691 241 -236 442 -432 447 -436 5 -3 111 -106 236
-230 126 -123 476 -466 780 -762 303 -296 563 -555 577 -575 57 -83 71 -130
71 -237 0 -92 -3 -105 -32 -168 -27 -56 -55 -91 -150 -186 -142 -140 -847
-829 -943 -921 -62 -59 -509 -496 -1105 -1080 -518 -508 -529 -518 -602 -553
-64 -30 -75 -32 -179 -32 -107 0 -112 1 -185 37 -64 32 -104 67 -294 250 -242
234 -277 259 -404 279 -163 25 -325 -46 -422 -185 -92 -131 -102 -273 -32
-424 26 -54 39 -68 703 -718 395 -387 406 -395 519 -430 66 -20 168 -18 242 6
113 36 85 11 629 545 124 121 410 400 635 620 226 220 509 496 630 615 516
505 692 677 905 886 124 121 432 422 685 669 567 554 558 544 592 613 26 53
28 66 28 177 0 112 -2 124 -29 180 -32 67 -14 49 -742 759 -236 231 -535 523
-664 650 -130 127 -325 319 -435 426 -110 107 -317 310 -460 449 -143 140
-345 339 -450 441 -104 102 -377 368 -605 591 -612 598 -576 565 -659 606 -67
34 -82 38 -170 41 -80 2 -107 -1 -161 -20z"/>
</g>
</svg>
